<?xml version="1.0" encoding="UTF-8" standalone="no"?>
<svg
   version="1.1"
   id="Layer_1"
   x="0px"
   y="0px"
   viewBox="0 0 240 240"
   style="enable-background:new 0 0 240 240"
   xml:space="preserve"
   sodipodi:docname="suntransit_icon.svg"
   inkscape:version="1.1.2 (0a00cf5339, 2022-02-04)"
   xmlns:inkscape="http://www.inkscape.org/namespaces/inkscape"
   xmlns:sodipodi="http://sodipodi.sourceforge.net/DTD/sodipodi-0.dtd"
   xmlns="http://www.w3.org/2000/svg"
   xmlns:svg="http://www.w3.org/2000/svg"><defs
     id="defs872" /><sodipodi:namedview
     id="namedview870"
     pagecolor="#ffffff"
     bordercolor="#666666"
     borderopacity="1.0"
     inkscape:pageshadow="2"
     inkscape:pageopacity="0.0"
     inkscape:pagecheckerboard="0"
     showgrid="false"
     inkscape:zoom="2.8739527"
     inkscape:cx="63.15344"
     inkscape:cy="87.162186"
     inkscape:window-width="1920"
     inkscape:window-height="1136"
     inkscape:window-x="0"
     inkscape:window-y="0"
     inkscape:window-maximized="1"
     inkscape:current-layer="layer2" /><g
     inkscape:groupmode="layer"
     id="layer1"
     inkscape:label="Layer 1" /><g
     inkscape:groupmode="layer"
     id="layer2"
     inkscape:label="Layer 2"><path
       class="st0"
       d="m 137.69005,151.16032 h -35.60531 l -4.182572,6.17596 h 43.819192 z m -43.72129,11.9782 -4.867812,7.18157 H 78.341929 l 17.477843,-26.21677 h -3.105789 c -4.235972,0 -7.706623,-3.47066 -7.706623,-7.70662 V 68.674499 c 0.0089,-4.235975 3.470651,-7.706626 7.706623,-7.706626 H 147.1943 c 4.23598,0 7.70663,3.470651 7.70663,7.706626 V 136.3967 c 0,4.23596 -3.47065,7.70662 -7.70663,7.70662 h -3.0257 l 16.75701,25.84301 h -10.99039 l -4.44064,-6.80781 z m 40.41084,-41.95928 h 9.32626 c 1.01449,0 1.84211,0.8276 1.84211,1.84209 v 9.31737 c 0,1.0145 -0.82762,1.84213 -1.84211,1.84213 h -9.32626 c -1.01451,0 -1.84213,-0.82763 -1.84213,-1.84213 v -9.32626 c 0,-1.0056 0.82762,-1.8332 1.84213,-1.8332 z m -39.147168,0 h 9.326258 c 1.0145,0 1.84212,0.8276 1.84212,1.84209 v 9.31737 c 0,1.0145 -0.82762,1.84213 -1.84212,1.84213 h -9.326258 c -1.014498,0 -1.842114,-0.82763 -1.842114,-1.84213 v -9.32626 c 0,-1.0056 0.827616,-1.8332 1.842114,-1.8332 z m 5.446248,-45.34986 h 38.09707 c 4.09358,0 7.43964,3.346063 7.43964,7.44855 v 11.72013 c 0,4.093593 -3.34606,7.43965 -7.43964,7.43965 h -38.09707 c -4.093584,0 -7.439648,-3.346057 -7.439648,-7.43965 V 83.27793 c 0,-4.093588 3.346064,-7.44855 7.439648,-7.44855 z m 11.77351,-11.479847 h 14.41656 c 0.72082,0 1.30817,0.587341 1.30817,1.308168 v 5.67763 c 0,0.720828 -0.58735,1.308169 -1.30817,1.308169 h -14.41656 c -0.72083,0 -1.30815,-0.587341 -1.30815,-1.308169 v -5.67763 c -0.008,-0.720827 0.57843,-1.308168 1.30815,-1.308168 z"
       id="path1008"
       style="clip-rule:evenodd;fill:#ffec3d;fill-opacity:1;fill-rule:evenodd;stroke:#000000;stroke-width:2.79;stroke-miterlimit:4;stroke-dasharray:none;stroke-opacity:1" /><g
       id="g867"
       style="enable-background:new 0 0 240 240"><path
         d="M58.57,25.81c-2.13-3.67-0.87-8.38,2.8-10.51c3.67-2.13,8.38-0.88,10.51,2.8l9.88,17.1c2.13,3.67,0.87,8.38-2.8,10.51 c-3.67,2.13-8.38,0.88-10.51-2.8L58.57,25.81L58.57,25.81z M120,51.17c19.01,0,36.21,7.7,48.67,20.16 C181.12,83.79,188.83,101,188.83,120c0,19.01-7.7,36.21-20.16,48.67c-12.46,12.46-29.66,20.16-48.67,20.16 c-19.01,0-36.21-7.7-48.67-20.16C58.88,156.21,51.17,139.01,51.17,120c0-19.01,7.7-36.21,20.16-48.67 C83.79,58.88,101,51.17,120,51.17L120,51.17z M158.27,81.73c-9.79-9.79-23.32-15.85-38.27-15.85c-14.95,0-28.48,6.06-38.27,15.85 c-9.79,9.79-15.85,23.32-15.85,38.27c0,14.95,6.06,28.48,15.85,38.27c9.79,9.79,23.32,15.85,38.27,15.85 c14.95,0,28.48-6.06,38.27-15.85c9.79-9.79,15.85-23.32,15.85-38.27C174.12,105.05,168.06,91.52,158.27,81.73L158.27,81.73z M113.88,7.71c0-4.26,3.45-7.71,7.71-7.71c4.26,0,7.71,3.45,7.71,7.71v19.75c0,4.26-3.45,7.71-7.71,7.71 c-4.26,0-7.71-3.45-7.71-7.71V7.71L113.88,7.71z M170.87,19.72c2.11-3.67,6.8-4.94,10.48-2.83c3.67,2.11,4.94,6.8,2.83,10.48 l-9.88,17.1c-2.11,3.67-6.8,4.94-10.48,2.83c-3.67-2.11-4.94-6.8-2.83-10.48L170.87,19.72L170.87,19.72z M214.19,58.57 c3.67-2.13,8.38-0.87,10.51,2.8c2.13,3.67,0.88,8.38-2.8,10.51l-17.1,9.88c-3.67,2.13-8.38,0.87-10.51-2.8 c-2.13-3.67-0.88-8.38,2.8-10.51L214.19,58.57L214.19,58.57z M232.29,113.88c4.26,0,7.71,3.45,7.71,7.71 c0,4.26-3.45,7.71-7.71,7.71h-19.75c-4.26,0-7.71-3.45-7.71-7.71c0-4.26,3.45-7.71,7.71-7.71H232.29L232.29,113.88z M220.28,170.87 c3.67,2.11,4.94,6.8,2.83,10.48c-2.11,3.67-6.8,4.94-10.48,2.83l-17.1-9.88c-3.67-2.11-4.94-6.8-2.83-10.48 c2.11-3.67,6.8-4.94,10.48-2.83L220.28,170.87L220.28,170.87z M181.43,214.19c2.13,3.67,0.87,8.38-2.8,10.51 c-3.67,2.13-8.38,0.88-10.51-2.8l-9.88-17.1c-2.13-3.67-0.87-8.38,2.8-10.51c3.67-2.13,8.38-0.88,10.51,2.8L181.43,214.19 L181.43,214.19z M126.12,232.29c0,4.26-3.45,7.71-7.71,7.71c-4.26,0-7.71-3.45-7.71-7.71v-19.75c0-4.26,3.45-7.71,7.71-7.71 c4.26,0,7.71,3.45,7.71,7.71V232.29L126.12,232.29z M69.13,220.28c-2.11,3.67-6.8,4.94-10.48,2.83c-3.67-2.11-4.94-6.8-2.83-10.48 l9.88-17.1c2.11-3.67,6.8-4.94,10.48-2.83c3.67,2.11,4.94,6.8,2.83,10.48L69.13,220.28L69.13,220.28z M25.81,181.43 c-3.67,2.13-8.38,0.87-10.51-2.8c-2.13-3.67-0.88-8.38,2.8-10.51l17.1-9.88c3.67-2.13,8.38-0.87,10.51,2.8 c2.13,3.67,0.88,8.38-2.8,10.51L25.81,181.43L25.81,181.43z M7.71,126.12c-4.26,0-7.71-3.45-7.71-7.71c0-4.26,3.45-7.71,7.71-7.71 h19.75c4.26,0,7.71,3.45,7.71,7.71c0,4.26-3.45,7.71-7.71,7.71H7.71L7.71,126.12z M19.72,69.13c-3.67-2.11-4.94-6.8-2.83-10.48 c2.11-3.67,6.8-4.94,10.48-2.83l17.1,9.88c3.67,2.11,4.94,6.8,2.83,10.48c-2.11,3.67-6.8,4.94-10.48,2.83L19.72,69.13L19.72,69.13z"
         id="path865" /></g></g></svg>
